<?xml version='1.0' encoding='utf-8'?>
<svg height="1236.70mm" viewBox="0.0 0.0 427.76 1236.70" width="427.76mm" xmlns="http://www.w3.org/2000/svg" xmlns:cc="http://creativecommons.org/ns#" xmlns:dc="http://purl.org/dc/elements/1.1/" xmlns:inkscape="http://www.inkscape.org/namespaces/inkscape" xmlns:rdf="http://www.w3.org/1999/02/22-rdf-syntax-ns#" xmlns:svg="http://www.w3.org/2000/svg" xmlns:xlink="http://www.w3.org/1999/xlink">
<!--
FatBallDispenser - 
    Fat balls are quite common to feed tits. Here you can build a dispenser that protects
    the fat balls from rain and snow. The design was tested using 4mm plywood for the
    main structural parts. For the spacer of the locking mechanism two layers of 3mm
    plywood have been stacked. The poles were made from 8mm diameter beech rod and 20cm
    in length. Some basic consistency checks have been made for different numbers, but
    only the defaults have ever been built.

    The final dispenser consists of two parts which slide into each other. You can mount
    a hook to hang it into a tree. All edges that have angles different from 90 degrees
    have engraved guiding lines which indicate the angle. You have to sand the edge such
    that the pieces fit together.

    The top part (roof) consists of the the following elements for a N sided dispenser:
      * The N sided roof bottom plate which supports the roof tiles. It has a central cut out
        which is needed for assembly and on the bottom side an engraved line which indicates the
        position of the mounting bracket.
      * N triangles forming the roof. They also have a small arc at the tip (roof_hole_diameter)
        which acts as a drilling guide if you want to mount a hook.
      * The N sided roof support piece which has a central hole for the hook. It is been mounted
        to the roof tiles through the hole in the roof bottom plate to support the roof
        tiles and acts as a mounting plate for the hook.
      * Spacer(s); in the reference builds 2 spacers using 3mm plywood have been used. The spacer
        needs to be a bit thicker than the ceiling (see below). That's the smaller
        "U" shaped part which is glued to the bottom side of the roof bottom plate.
      * The bracket is also "U" shaped and a bit wider than the spacer. This is glued to the
        bottom of the spacer and holds the cage (bottom part).

    The bottom part (cage) consists of the follwoing elements:
      * The ceiling is N sided with the central refill hole and N smaller holes into which
        the poles are fitted.
      * The N sided floor part with finger joints for the balcony walls and holes for
        the poles. A central hole to drain rain water can be added as well.
      * N balcony walls surrounding the floor.
      * N poles that join floor and ceiling (not part of the drawing)

    Other parts needed for assembly if you want to have a hanger:
      * A hook (e.g. M5x50mm)
      * A washer to distribute the load of the hook to the support piece
      * One or two nuts to secure the hook
    

Created with Boxes.py (https://boxes.hackerspace-bamberg.de/)
Command line (remove spaces between dashes): boxes FatBallDispenser
-->
<title>FatBallDispenser</title>
<metadata>
<rdf:RDF><cc:Work>
<dc:title>Unstable - FatBallDispenser</dc:title>
<dc:source>boxes FatBallDispenser</dc:source>
<dc:description>
    Fat balls are quite common to feed tits. Here you can build a dispenser that protects
    the fat balls from rain and snow. The design was tested using 4mm plywood for the
    main structural parts. For the spacer of the locking mechanism two layers of 3mm
    plywood have been stacked. The poles were made from 8mm diameter beech rod and 20cm
    in length. Some basic consistency checks have been made for different numbers, but
    only the defaults have ever been built.

    The final dispenser consists of two parts which slide into each other. You can mount
    a hook to hang it into a tree. All edges that have angles different from 90 degrees
    have engraved guiding lines which indicate the angle. You have to sand the edge such
    that the pieces fit together.

    The top part (roof) consists of the the following elements for a N sided dispenser:
      * The N sided roof bottom plate which supports the roof tiles. It has a central cut out
        which is needed for assembly and on the bottom side an engraved line which indicates the
        position of the mounting bracket.
      * N triangles forming the roof. They also have a small arc at the tip (roof_hole_diameter)
        which acts as a drilling guide if you want to mount a hook.
      * The N sided roof support piece which has a central hole for the hook. It is been mounted
        to the roof tiles through the hole in the roof bottom plate to support the roof
        tiles and acts as a mounting plate for the hook.
      * Spacer(s); in the reference builds 2 spacers using 3mm plywood have been used. The spacer
        needs to be a bit thicker than the ceiling (see below). That's the smaller
        "U" shaped part which is glued to the bottom side of the roof bottom plate.
      * The bracket is also "U" shaped and a bit wider than the spacer. This is glued to the
        bottom of the spacer and holds the cage (bottom part).

    The bottom part (cage) consists of the follwoing elements:
      * The ceiling is N sided with the central refill hole and N smaller holes into which
        the poles are fitted.
      * The N sided floor part with finger joints for the balcony walls and holes for
        the poles. A central hole to drain rain water can be added as well.
      * N balcony walls surrounding the floor.
      * N poles that join floor and ceiling (not part of the drawing)

    Other parts needed for assembly if you want to have a hanger:
      * A hook (e.g. M5x50mm)
      * A washer to distribute the load of the hook to the support piece
      * One or two nuts to secure the hook
    

Created with Boxes.py (https://boxes.hackerspace-bamberg.de/)
Command line: boxes FatBallDispenser
Command line short: boxes FatBallDispenser
</dc:description>
</cc:Work></rdf:RDF></metadata>
<g id="p-0" style="fill:none;stroke-linecap:round;stroke-linejoin:round;">
  <path d="M 10.087 1226.695 H 110.087 V 1216.695 H 10.087 V 1226.695 Z" stroke="rgb(0,0,0)" stroke-width="0.20" />
  <text dominant-baseline="hanging" font-size="6px" style="font-family: sans-serif ; font-weight: normal; font-style: normal; fill: rgb(255,0,0)" text-anchor="middle" transform="matrix( 1.000 0.000 0.000 1.000 60.087 1218.695 )">100.0mm, burn:0.10mm</text>
</g>
<g id="p-1" style="fill:none;stroke-linecap:round;stroke-linejoin:round;">
  <path d="M 113.771 1157.491 C 113.771 1164.661 111.710 1171.679 107.834 1177.711 C 103.958 1183.743 98.430 1188.533 91.908 1191.511 C 85.386 1194.490 78.145 1195.531 71.049 1194.510 C 63.952 1193.490 57.298 1190.451 51.879 1185.756 C 46.461 1181.061 42.506 1174.907 40.486 1168.028 C 38.466 1161.148 38.466 1153.834 40.486 1146.954 C 42.506 1140.075 46.461 1133.921 51.879 1129.226 C 57.298 1124.531 63.952 1121.492 71.049 1120.472 C 78.145 1119.451 85.386 1120.492 91.908 1123.471 C 98.430 1126.449 103.958 1131.239 107.834 1137.271 C 111.710 1143.303 113.771 1150.321 113.771 1157.491 Z" stroke="rgb(0,0,255)" stroke-width="0.20" />
  <path d="M 54.325 1202.431 C 54.325 1203.179 54.110 1203.911 53.706 1204.540 C 53.302 1205.169 52.725 1205.668 52.045 1205.979 C 51.365 1206.289 50.610 1206.398 49.870 1206.291 C 49.130 1206.185 48.436 1205.868 47.871 1205.378 C 47.306 1204.889 46.894 1204.247 46.683 1203.530 C 46.472 1202.812 46.472 1202.050 46.683 1201.332 C 46.894 1200.615 47.306 1199.973 47.871 1199.484 C 48.436 1198.994 49.130 1198.677 49.870 1198.571 C 50.610 1198.464 51.365 1198.573 52.045 1198.883 C 52.725 1199.194 53.302 1199.694 53.706 1200.323 C 54.110 1200.952 54.325 1201.683 54.325 1202.431 Z" stroke="rgb(0,0,255)" stroke-width="0.20" />
  <path d="M 38.552 1206.795 H 104.837 L 133.303 1157.491 L 104.837 1108.187 H 38.552" stroke="rgb(0,255,0)" stroke-width="0.20" />
  <path d="M 43.229 1214.995 H 109.514 C 109.549 1214.995 109.582 1214.976 109.600 1214.945 L 142.742 1157.541 C 142.760 1157.510 142.760 1157.472 142.742 1157.441 L 109.600 1100.037 C 109.582 1100.006 109.549 1099.987 109.514 1099.987 H 43.229 C 43.193 1099.987 43.160 1100.006 43.142 1100.037 L 10.000 1157.441 C 9.982 1157.472 9.982 1157.510 10.000 1157.541 L 43.142 1214.945 C 43.160 1214.976 43.193 1214.995 43.229 1214.995 Z" stroke="rgb(0,0,0)" stroke-width="0.20" />
  <path d="M 104.267 1199.054 C 104.915 1199.427 105.441 1199.979 105.784 1200.644 C 106.126 1201.309 106.271 1202.058 106.200 1202.802 C 106.129 1203.546 105.845 1204.254 105.383 1204.842 C 104.921 1205.430 104.299 1205.872 103.593 1206.117 C 102.886 1206.361 102.124 1206.397 101.398 1206.221 C 100.671 1206.045 100.011 1205.663 99.495 1205.122 C 98.979 1204.581 98.629 1203.903 98.488 1203.169 C 98.346 1202.435 98.419 1201.676 98.697 1200.982 C 98.975 1200.287 99.446 1199.688 100.055 1199.254 C 100.664 1198.821 101.385 1198.571 102.132 1198.535 C 102.879 1198.500 103.620 1198.680 104.267 1199.054 Z" stroke="rgb(0,0,255)" stroke-width="0.20" />
  <path d="M 126.314 1154.114 C 126.961 1153.740 127.702 1153.560 128.449 1153.595 C 129.196 1153.631 129.917 1153.880 130.526 1154.314 C 131.135 1154.748 131.606 1155.347 131.884 1156.042 C 132.162 1156.736 132.235 1157.495 132.093 1158.229 C 131.952 1158.963 131.602 1159.641 131.086 1160.182 C 130.570 1160.723 129.910 1161.105 129.183 1161.281 C 128.456 1161.457 127.694 1161.421 126.988 1161.177 C 126.281 1160.932 125.660 1160.490 125.198 1159.902 C 124.736 1159.314 124.452 1158.606 124.381 1157.862 C 124.310 1157.117 124.454 1156.368 124.797 1155.704 C 125.140 1155.039 125.666 1154.487 126.314 1154.114 Z" stroke="rgb(0,0,255)" stroke-width="0.20" />
  <path d="M 98.417 1112.551 C 98.417 1111.803 98.632 1111.071 99.036 1110.442 C 99.441 1109.813 100.017 1109.314 100.697 1109.003 C 101.377 1108.693 102.132 1108.584 102.872 1108.691 C 103.612 1108.797 104.306 1109.114 104.871 1109.604 C 105.436 1110.093 105.849 1110.735 106.059 1111.452 C 106.270 1112.170 106.270 1112.932 106.059 1113.650 C 105.849 1114.367 105.436 1115.009 104.871 1115.498 C 104.306 1115.988 103.612 1116.305 102.872 1116.411 C 102.132 1116.518 101.377 1116.409 100.697 1116.099 C 100.017 1115.788 99.441 1115.288 99.036 1114.659 C 98.632 1114.030 98.417 1113.299 98.417 1112.551 Z" stroke="rgb(0,0,255)" stroke-width="0.20" />
  <path d="M 48.475 1115.928 C 47.828 1115.555 47.301 1115.003 46.959 1114.338 C 46.616 1113.674 46.472 1112.924 46.543 1112.180 C 46.614 1111.436 46.897 1110.728 47.359 1110.140 C 47.822 1109.552 48.443 1109.110 49.149 1108.865 C 49.856 1108.621 50.618 1108.585 51.345 1108.761 C 52.071 1108.937 52.732 1109.319 53.248 1109.860 C 53.764 1110.401 54.113 1111.079 54.255 1111.813 C 54.396 1112.547 54.324 1113.306 54.046 1114.000 C 53.768 1114.695 53.296 1115.294 52.687 1115.728 C 52.078 1116.161 51.357 1116.411 50.611 1116.447 C 49.864 1116.482 49.123 1116.302 48.475 1115.928 Z" stroke="rgb(0,0,255)" stroke-width="0.20" />
  <path d="M 26.429 1160.869 C 25.781 1161.242 25.040 1161.422 24.293 1161.387 C 23.547 1161.351 22.826 1161.102 22.217 1160.668 C 21.608 1160.234 21.136 1159.635 20.858 1158.940 C 20.580 1158.246 20.508 1157.487 20.649 1156.753 C 20.791 1156.019 21.140 1155.341 21.656 1154.800 C 22.172 1154.259 22.833 1153.877 23.559 1153.701 C 24.286 1153.525 25.048 1153.561 25.754 1153.806 C 26.461 1154.050 27.082 1154.492 27.545 1155.080 C 28.007 1155.668 28.290 1156.376 28.361 1157.120 C 28.432 1157.865 28.288 1158.614 27.945 1159.278 C 27.603 1159.943 27.076 1160.495 26.429 1160.869 Z" stroke="rgb(0,0,255)" stroke-width="0.20" />
</g>
<g id="p-2" style="fill:none;stroke-linecap:round;stroke-linejoin:round;">
  <path d="M 147.164 1019.672 C 147.164 1028.526 144.619 1037.193 139.832 1044.641 C 135.045 1052.089 128.218 1058.005 120.165 1061.683 C 112.111 1065.361 103.170 1066.646 94.406 1065.386 C 85.642 1064.126 77.426 1060.374 70.734 1054.576 C 64.043 1048.778 59.160 1041.179 56.665 1032.684 C 54.171 1024.188 54.171 1015.155 56.665 1006.660 C 59.160 998.165 64.043 990.566 70.734 984.768 C 77.426 978.970 85.642 975.217 94.406 973.957 C 103.170 972.697 112.111 973.983 120.165 977.661 C 128.218 981.339 135.045 987.254 139.832 994.703 C 144.619 1002.151 147.164 1010.818 147.164 1019.672 Z" stroke="rgb(0,0,255)" stroke-width="0.20" />
  <path d="M 67.837 1077.176 H 134.121 C 134.157 1077.176 134.190 1077.157 134.208 1077.126 L 167.350 1019.722 C 167.368 1019.691 167.368 1019.653 167.350 1019.622 L 134.208 962.218 C 134.190 962.187 134.157 962.168 134.121 962.168 H 67.837 C 67.801 962.168 67.768 962.187 67.750 962.218 L 34.608 1019.622 C 34.590 1019.653 34.590 1019.691 34.608 1019.722 L 67.750 1077.126 C 67.768 1077.157 67.801 1077.176 67.837 1077.176 Z" stroke="rgb(0,255,0)" stroke-width="0.20" />
  <path d="M 55.533 1098.487 H 146.425 C 146.461 1098.487 146.494 1098.468 146.512 1098.437 L 191.958 1019.722 C 191.976 1019.691 191.976 1019.653 191.958 1019.622 L 146.512 940.907 C 146.494 940.876 146.461 940.857 146.425 940.857 H 55.533 C 55.497 940.857 55.464 940.876 55.446 940.907 L 10.000 1019.622 C 9.982 1019.653 9.982 1019.691 10.000 1019.722 L 55.446 1098.437 C 55.464 1098.468 55.497 1098.487 55.533 1098.487 Z" stroke="rgb(0,0,0)" stroke-width="0.20" />
</g>
<g id="p-3" style="fill:none;stroke-linecap:round;stroke-linejoin:round;">
  <path d="M 86.843 874.862 C 86.843 875.322 86.711 875.773 86.462 876.160 C 86.213 876.547 85.859 876.854 85.440 877.045 C 85.021 877.236 84.557 877.303 84.101 877.238 C 83.646 877.172 83.219 876.977 82.871 876.676 C 82.524 876.375 82.270 875.980 82.140 875.538 C 82.011 875.097 82.011 874.628 82.140 874.186 C 82.270 873.745 82.524 873.350 82.871 873.048 C 83.219 872.747 83.646 872.552 84.101 872.487 C 84.557 872.421 85.021 872.488 85.440 872.679 C 85.859 872.870 86.213 873.178 86.462 873.565 C 86.711 873.952 86.843 874.402 86.843 874.862 Z" stroke="rgb(0,0,255)" stroke-width="0.20" />
  <path d="M 62.397 919.802 C 62.397 920.550 62.182 921.282 61.778 921.911 C 61.374 922.540 60.797 923.039 60.117 923.350 C 59.437 923.660 58.682 923.769 57.942 923.663 C 57.202 923.556 56.508 923.239 55.943 922.750 C 55.378 922.260 54.965 921.618 54.755 920.901 C 54.544 920.184 54.544 919.421 54.755 918.704 C 54.965 917.986 55.378 917.344 55.943 916.855 C 56.508 916.365 57.202 916.048 57.942 915.942 C 58.682 915.836 59.437 915.944 60.117 916.255 C 60.797 916.565 61.374 917.065 61.778 917.694 C 62.182 918.323 62.397 919.055 62.397 919.802 Z" stroke="rgb(0,0,255)" stroke-width="0.20" />
  <path d="M 48.997 939.357 H 57.443 C 57.498 939.357 57.543 939.312 57.543 939.257 V 936.357 C 57.543 936.257 57.443 936.357 57.543 936.357 H 63.343 C 63.443 936.357 63.343 936.257 63.343 936.357 V 939.257 C 63.343 939.312 63.388 939.357 63.443 939.357 H 69.443 C 69.498 939.357 69.543 939.312 69.543 939.257 V 936.357 C 69.543 936.257 69.443 936.357 69.543 936.357 H 75.343 C 75.443 936.357 75.343 936.257 75.343 936.357 V 939.257 C 75.343 939.312 75.388 939.357 75.443 939.357 H 81.443 C 81.498 939.357 81.543 939.312 81.543 939.257 V 936.357 C 81.543 936.257 81.443 936.357 81.543 936.357 H 87.343 C 87.443 936.357 87.343 936.257 87.343 936.357 V 939.257 C 87.343 939.312 87.388 939.357 87.443 939.357 H 93.443 C 93.498 939.357 93.543 939.312 93.543 939.257 V 936.357 C 93.543 936.257 93.443 936.357 93.543 936.357 H 99.343 C 99.443 936.357 99.343 936.257 99.343 936.357 V 939.257 C 99.343 939.312 99.388 939.357 99.443 939.357 H 105.443 C 105.498 939.357 105.543 939.312 105.543 939.257 V 936.357 C 105.543 936.257 105.443 936.357 105.543 936.357 H 111.343 C 111.443 936.357 111.343 936.257 111.343 936.357 V 939.257 C 111.343 939.312 111.388 939.357 111.443 939.357 H 119.889 H 121.621 C 121.657 939.357 121.690 939.338 121.708 939.307 L 122.574 937.807 L 126.797 930.492 C 126.825 930.444 126.808 930.383 126.760 930.356 L 124.249 928.906 C 124.162 928.856 124.199 928.992 124.249 928.906 L 127.149 923.883 C 127.199 923.796 127.062 923.833 127.149 923.883 L 129.660 925.333 C 129.708 925.360 129.769 925.344 129.797 925.296 L 132.797 920.100 C 132.825 920.052 132.808 919.991 132.760 919.963 L 130.249 918.513 C 130.162 918.463 130.199 918.600 130.249 918.513 L 133.149 913.490 C 133.199 913.404 133.062 913.440 133.149 913.490 L 135.660 914.940 C 135.708 914.968 135.769 914.952 135.797 914.904 L 138.797 909.708 C 138.825 909.660 138.808 909.599 138.760 909.571 L 136.249 908.121 C 136.162 908.071 136.199 908.208 136.249 908.121 L 139.149 903.098 C 139.199 903.011 139.062 903.048 139.149 903.098 L 141.660 904.548 C 141.708 904.576 141.769 904.559 141.797 904.511 L 144.797 899.315 C 144.825 899.267 144.808 899.206 144.760 899.179 L 142.249 897.729 C 142.162 897.679 142.199 897.815 142.249 897.729 L 145.149 892.706 C 145.199 892.619 145.062 892.656 145.149 892.706 L 147.660 894.156 C 147.708 894.183 147.769 894.167 147.797 894.119 L 150.797 888.923 C 150.825 888.875 150.808 888.814 150.760 888.786 L 148.249 887.336 C 148.162 887.286 148.199 887.423 148.249 887.336 L 151.149 882.313 C 151.199 882.227 151.062 882.263 151.149 882.313 L 153.660 883.763 C 153.708 883.791 153.769 883.775 153.797 883.727 L 158.020 876.412 L 158.886 874.912 C 158.904 874.881 158.904 874.843 158.886 874.812 L 158.020 873.312 L 153.797 865.998 C 153.769 865.950 153.708 865.933 153.660 865.961 L 151.149 867.411 C 151.062 867.461 151.199 867.498 151.149 867.411 L 148.249 862.388 C 148.199 862.301 148.162 862.438 148.249 862.388 L 150.760 860.938 C 150.808 860.910 150.825 860.849 150.797 860.801 L 147.797 855.605 C 147.769 855.558 147.708 855.541 147.660 855.569 L 145.149 857.019 C 145.062 857.069 145.199 857.105 145.149 857.019 L 142.249 851.996 C 142.199 851.909 142.162 852.046 142.249 851.996 L 144.760 850.546 C 144.808 850.518 144.825 850.457 144.797 850.409 L 141.797 845.213 C 141.769 845.165 141.708 845.149 141.660 845.176 L 139.149 846.626 C 139.062 846.676 139.199 846.713 139.149 846.626 L 136.249 841.603 C 136.199 841.517 136.162 841.653 136.249 841.603 L 138.760 840.153 C 138.808 840.126 138.825 840.065 138.797 840.017 L 135.797 834.821 C 135.769 834.773 135.708 834.757 135.660 834.784 L 133.149 836.234 C 133.062 836.284 133.199 836.321 133.149 836.234 L 130.249 831.211 C 130.199 831.125 130.162 831.261 130.249 831.211 L 132.760 829.761 C 132.808 829.734 132.825 829.672 132.797 829.625 L 129.797 824.428 C 129.769 824.381 129.708 824.364 129.660 824.392 L 127.149 825.842 C 127.062 825.892 127.199 825.928 127.149 825.842 L 124.249 820.819 C 124.199 820.732 124.162 820.869 124.249 820.819 L 126.760 819.369 C 126.808 819.341 126.825 819.280 126.797 819.232 L 122.574 811.918 L 121.708 810.418 C 121.690 810.387 121.657 810.368 121.621 810.368 H 119.889 H 111.443 C 111.388 810.368 111.343 810.412 111.343 810.468 V 813.368 C 111.343 813.468 111.443 813.368 111.343 813.368 H 105.543 C 105.443 813.368 105.543 813.468 105.543 813.368 V 810.468 C 105.543 810.412 105.498 810.368 105.443 810.368 H 99.443 C 99.388 810.368 99.343 810.412 99.343 810.468 V 813.368 C 99.343 813.468 99.443 813.368 99.343 813.368 H 93.543 C 93.443 813.368 93.543 813.468 93.543 813.368 V 810.468 C 93.543 810.412 93.498 810.368 93.443 810.368 H 87.443 C 87.388 810.368 87.343 810.412 87.343 810.468 V 813.368 C 87.343 813.468 87.443 813.368 87.343 813.368 H 81.543 C 81.443 813.368 81.543 813.468 81.543 813.368 V 810.468 C 81.543 810.412 81.498 810.368 81.443 810.368 H 75.443 C 75.388 810.368 75.343 810.412 75.343 810.468 V 813.368 C 75.343 813.468 75.443 813.368 75.343 813.368 H 69.543 C 69.443 813.368 69.543 813.468 69.543 813.368 V 810.468 C 69.543 810.412 69.498 810.368 69.443 810.368 H 63.443 C 63.388 810.368 63.343 810.412 63.343 810.468 V 813.368 C 63.343 813.468 63.443 813.368 63.343 813.368 H 57.543 C 57.443 813.368 57.543 813.468 57.543 813.368 V 810.468 C 57.543 810.412 57.498 810.368 57.443 810.368 H 48.997 H 47.265 C 47.229 810.368 47.196 810.387 47.178 810.418 L 46.312 811.918 L 42.089 819.232 C 42.061 819.280 42.078 819.341 42.126 819.369 L 44.637 820.819 C 44.724 820.869 44.687 820.732 44.637 820.819 L 41.737 825.842 C 41.687 825.928 41.824 825.892 41.737 825.842 L 39.226 824.392 C 39.178 824.364 39.117 824.381 39.089 824.428 L 36.089 829.625 C 36.061 829.672 36.078 829.734 36.126 829.761 L 38.637 831.211 C 38.724 831.261 38.687 831.125 38.637 831.211 L 35.737 836.234 C 35.687 836.321 35.824 836.284 35.737 836.234 L 33.226 834.784 C 33.178 834.757 33.117 834.773 33.089 834.821 L 30.089 840.017 C 30.061 840.065 30.078 840.126 30.126 840.153 L 32.637 841.603 C 32.724 841.653 32.687 841.517 32.637 841.603 L 29.737 846.626 C 29.687 846.713 29.824 846.676 29.737 846.626 L 27.226 845.176 C 27.178 845.149 27.117 845.165 27.089 845.213 L 24.089 850.409 C 24.061 850.457 24.078 850.518 24.126 850.546 L 26.637 851.996 C 26.724 852.046 26.687 851.909 26.637 851.996 L 23.737 857.019 C 23.687 857.105 23.824 857.069 23.737 857.019 L 21.226 855.569 C 21.178 855.541 21.117 855.558 21.089 855.605 L 18.089 860.801 C 18.061 860.849 18.078 860.910 18.126 860.938 L 20.637 862.388 C 20.724 862.438 20.687 862.301 20.637 862.388 L 17.737 867.411 C 17.687 867.498 17.824 867.461 17.737 867.411 L 15.226 865.961 C 15.178 865.933 15.117 865.950 15.089 865.998 L 10.866 873.312 L 10.000 874.812 C 9.982 874.843 9.982 874.881 10.000 874.912 L 10.866 876.412 L 15.089 883.727 C 15.117 883.775 15.178 883.791 15.226 883.763 L 17.737 882.313 C 17.824 882.263 17.687 882.227 17.737 882.313 L 20.637 887.336 C 20.687 887.423 20.724 887.286 20.637 887.336 L 18.126 888.786 C 18.078 888.814 18.061 888.875 18.089 888.923 L 21.089 894.119 C 21.117 894.167 21.178 894.183 21.226 894.156 L 23.737 892.706 C 23.824 892.656 23.687 892.619 23.737 892.706 L 26.637 897.729 C 26.687 897.815 26.724 897.679 26.637 897.729 L 24.126 899.179 C 24.078 899.206 24.061 899.267 24.089 899.315 L 27.089 904.511 C 27.117 904.559 27.178 904.576 27.226 904.548 L 29.737 903.098 C 29.824 903.048 29.687 903.011 29.737 903.098 L 32.637 908.121 C 32.687 908.208 32.724 908.071 32.637 908.121 L 30.126 909.571 C 30.078 909.599 30.061 909.660 30.089 909.708 L 33.089 914.904 C 33.117 914.952 33.178 914.968 33.226 914.940 L 35.737 913.490 C 35.824 913.440 35.687 913.404 35.737 913.490 L 38.637 918.513 C 38.687 918.600 38.724 918.463 38.637 918.513 L 36.126 919.963 C 36.078 919.991 36.061 920.052 36.089 920.100 L 39.089 925.296 C 39.117 925.344 39.178 925.360 39.226 925.333 L 41.737 923.883 C 41.824 923.833 41.687 923.796 41.737 923.883 L 44.637 928.906 C 44.687 928.992 44.724 928.856 44.637 928.906 L 42.126 930.356 C 42.078 930.383 42.061 930.444 42.089 930.492 L 46.312 937.807 L 47.178 939.307 C 47.196 939.338 47.229 939.357 47.265 939.357 H 48.997 Z" stroke="rgb(0,0,0)" stroke-width="0.20" />
  <path d="M 112.339 916.425 C 112.987 916.799 113.513 917.351 113.856 918.015 C 114.198 918.680 114.343 919.429 114.272 920.173 C 114.200 920.917 113.917 921.625 113.455 922.213 C 112.993 922.801 112.371 923.243 111.665 923.488 C 110.958 923.732 110.196 923.769 109.470 923.592 C 108.743 923.416 108.083 923.035 107.567 922.494 C 107.051 921.952 106.701 921.274 106.560 920.540 C 106.418 919.806 106.491 919.047 106.769 918.353 C 107.046 917.659 107.518 917.059 108.127 916.625 C 108.736 916.192 109.457 915.942 110.204 915.907 C 110.950 915.871 111.692 916.051 112.339 916.425 Z" stroke="rgb(0,0,255)" stroke-width="0.20" />
  <path d="M 134.385 871.485 C 135.033 871.111 135.774 870.931 136.521 870.967 C 137.268 871.002 137.989 871.252 138.598 871.685 C 139.207 872.119 139.678 872.719 139.956 873.413 C 140.234 874.107 140.306 874.866 140.165 875.600 C 140.023 876.334 139.674 877.012 139.158 877.554 C 138.642 878.095 137.981 878.476 137.255 878.652 C 136.528 878.829 135.766 878.792 135.060 878.548 C 134.353 878.303 133.732 877.861 133.270 877.273 C 132.808 876.685 132.524 875.977 132.453 875.233 C 132.382 874.489 132.526 873.740 132.869 873.075 C 133.211 872.411 133.738 871.859 134.385 871.485 Z" stroke="rgb(0,0,255)" stroke-width="0.20" />
  <path d="M 106.489 829.922 C 106.489 829.175 106.704 828.443 107.108 827.814 C 107.512 827.185 108.089 826.685 108.769 826.375 C 109.449 826.064 110.204 825.955 110.944 826.062 C 111.684 826.168 112.378 826.485 112.943 826.975 C 113.508 827.464 113.921 828.106 114.131 828.823 C 114.342 829.541 114.342 830.304 114.131 831.021 C 113.921 831.738 113.508 832.380 112.943 832.870 C 112.378 833.359 111.684 833.676 110.944 833.782 C 110.204 833.889 109.449 833.780 108.769 833.470 C 108.089 833.159 107.512 832.660 107.108 832.031 C 106.704 831.402 106.489 830.670 106.489 829.922 Z" stroke="rgb(0,0,255)" stroke-width="0.20" />
  <path d="M 56.547 833.300 C 55.899 832.926 55.373 832.374 55.030 831.709 C 54.688 831.045 54.543 830.296 54.615 829.551 C 54.686 828.807 54.969 828.099 55.431 827.511 C 55.893 826.924 56.515 826.481 57.221 826.237 C 57.928 825.992 58.690 825.956 59.416 826.132 C 60.143 826.308 60.803 826.690 61.319 827.231 C 61.835 827.772 62.185 828.450 62.326 829.184 C 62.468 829.918 62.395 830.678 62.117 831.372 C 61.840 832.066 61.368 832.665 60.759 833.099 C 60.150 833.533 59.429 833.782 58.682 833.818 C 57.936 833.853 57.194 833.673 56.547 833.300 Z" stroke="rgb(0,0,255)" stroke-width="0.20" />
  <path d="M 34.501 878.240 C 33.853 878.614 33.112 878.793 32.365 878.758 C 31.618 878.722 30.897 878.473 30.288 878.039 C 29.679 877.605 29.208 877.006 28.930 876.312 C 28.652 875.618 28.580 874.858 28.721 874.124 C 28.863 873.390 29.212 872.712 29.728 872.171 C 30.244 871.630 30.905 871.248 31.631 871.072 C 32.358 870.896 33.120 870.932 33.826 871.177 C 34.533 871.421 35.154 871.864 35.616 872.451 C 36.078 873.039 36.362 873.747 36.433 874.492 C 36.504 875.236 36.360 875.985 36.017 876.649 C 35.675 877.314 35.148 877.866 34.501 878.240 Z" stroke="rgb(0,0,255)" stroke-width="0.20" />
</g>
<g id="p-4" style="fill:none;stroke-linecap:round;stroke-linejoin:round;">
  <path d="M 160.499 939.357 H 162.231 H 170.578 C 170.678 939.357 170.578 939.257 170.578 939.357 V 942.257 C 170.578 942.312 170.622 942.357 170.678 942.357 H 176.678 C 176.733 942.357 176.778 942.312 176.778 942.257 V 939.357 C 176.778 939.257 176.678 939.357 176.778 939.357 H 182.578 C 182.678 939.357 182.578 939.257 182.578 939.357 V 942.257 C 182.578 942.312 182.622 942.357 182.678 942.357 H 188.678 C 188.733 942.357 188.778 942.312 188.778 942.257 V 939.357 C 188.778 939.257 188.678 939.357 188.778 939.357 H 194.578 C 194.678 939.357 194.578 939.257 194.578 939.357 V 942.257 C 194.578 942.312 194.622 942.357 194.678 942.357 H 200.678 C 200.733 942.357 200.778 942.312 200.778 942.257 V 939.357 C 200.778 939.257 200.678 939.357 200.778 939.357 H 206.578 C 206.678 939.357 206.578 939.257 206.578 939.357 V 942.257 C 206.578 942.312 206.622 942.357 206.678 942.357 H 212.678 C 212.733 942.357 212.778 942.312 212.778 942.257 V 939.357 C 212.778 939.257 212.678 939.357 212.778 939.357 H 218.578 C 218.678 939.357 218.578 939.257 218.578 939.357 V 942.257 C 218.578 942.312 218.622 942.357 218.678 942.357 H 224.678 C 224.733 942.357 224.778 942.312 224.778 942.257 V 939.357 C 224.778 939.257 224.678 939.357 224.778 939.357 H 233.124 H 234.856 C 234.911 939.357 234.956 939.312 234.956 939.257 V 919.257 C 234.956 919.202 234.911 919.157 234.856 919.157 H 160.499 C 160.444 919.157 160.399 919.202 160.399 919.257 V 939.257 C 160.399 939.312 160.444 939.357 160.499 939.357 Z" stroke="rgb(0,0,0)" stroke-width="0.20" />
  <path d="M 162.231 939.357 V 919.357 M 233.124 939.357 V 919.357" stroke="rgb(0,255,0)" stroke-width="0.20" />
</g>
<g id="p-5" style="fill:none;stroke-linecap:round;stroke-linejoin:round;">
  <path d="M 160.499 914.657 H 162.231 H 170.578 C 170.678 914.657 170.578 914.557 170.578 914.657 V 917.557 C 170.578 917.612 170.622 917.657 170.678 917.657 H 176.678 C 176.733 917.657 176.778 917.612 176.778 917.557 V 914.657 C 176.778 914.557 176.678 914.657 176.778 914.657 H 182.578 C 182.678 914.657 182.578 914.557 182.578 914.657 V 917.557 C 182.578 917.612 182.622 917.657 182.678 917.657 H 188.678 C 188.733 917.657 188.778 917.612 188.778 917.557 V 914.657 C 188.778 914.557 188.678 914.657 188.778 914.657 H 194.578 C 194.678 914.657 194.578 914.557 194.578 914.657 V 917.557 C 194.578 917.612 194.622 917.657 194.678 917.657 H 200.678 C 200.733 917.657 200.778 917.612 200.778 917.557 V 914.657 C 200.778 914.557 200.678 914.657 200.778 914.657 H 206.578 C 206.678 914.657 206.578 914.557 206.578 914.657 V 917.557 C 206.578 917.612 206.622 917.657 206.678 917.657 H 212.678 C 212.733 917.657 212.778 917.612 212.778 917.557 V 914.657 C 212.778 914.557 212.678 914.657 212.778 914.657 H 218.578 C 218.678 914.657 218.578 914.557 218.578 914.657 V 917.557 C 218.578 917.612 218.622 917.657 218.678 917.657 H 224.678 C 224.733 917.657 224.778 917.612 224.778 917.557 V 914.657 C 224.778 914.557 224.678 914.657 224.778 914.657 H 233.124 H 234.856 C 234.911 914.657 234.956 914.612 234.956 914.557 V 894.557 C 234.956 894.502 234.911 894.457 234.856 894.457 H 160.499 C 160.444 894.457 160.399 894.502 160.399 894.557 V 914.557 C 160.399 914.612 160.444 914.657 160.499 914.657 Z" stroke="rgb(0,0,0)" stroke-width="0.20" />
  <path d="M 162.231 914.657 V 894.657 M 233.124 914.657 V 894.657" stroke="rgb(0,255,0)" stroke-width="0.20" />
</g>
<g id="p-6" style="fill:none;stroke-linecap:round;stroke-linejoin:round;">
  <path d="M 160.499 889.957 H 162.231 H 170.578 C 170.678 889.957 170.578 889.857 170.578 889.957 V 892.857 C 170.578 892.912 170.622 892.957 170.678 892.957 H 176.678 C 176.733 892.957 176.778 892.912 176.778 892.857 V 889.957 C 176.778 889.857 176.678 889.957 176.778 889.957 H 182.578 C 182.678 889.957 182.578 889.857 182.578 889.957 V 892.857 C 182.578 892.912 182.622 892.957 182.678 892.957 H 188.678 C 188.733 892.957 188.778 892.912 188.778 892.857 V 889.957 C 188.778 889.857 188.678 889.957 188.778 889.957 H 194.578 C 194.678 889.957 194.578 889.857 194.578 889.957 V 892.857 C 194.578 892.912 194.622 892.957 194.678 892.957 H 200.678 C 200.733 892.957 200.778 892.912 200.778 892.857 V 889.957 C 200.778 889.857 200.678 889.957 200.778 889.957 H 206.578 C 206.678 889.957 206.578 889.857 206.578 889.957 V 892.857 C 206.578 892.912 206.622 892.957 206.678 892.957 H 212.678 C 212.733 892.957 212.778 892.912 212.778 892.857 V 889.957 C 212.778 889.857 212.678 889.957 212.778 889.957 H 218.578 C 218.678 889.957 218.578 889.857 218.578 889.957 V 892.857 C 218.578 892.912 218.622 892.957 218.678 892.957 H 224.678 C 224.733 892.957 224.778 892.912 224.778 892.857 V 889.957 C 224.778 889.857 224.678 889.957 224.778 889.957 H 233.124 H 234.856 C 234.911 889.957 234.956 889.912 234.956 889.857 V 869.857 C 234.956 869.802 234.911 869.757 234.856 869.757 H 160.499 C 160.444 869.757 160.399 869.802 160.399 869.857 V 889.857 C 160.399 889.912 160.444 889.957 160.499 889.957 Z" stroke="rgb(0,0,0)" stroke-width="0.20" />
  <path d="M 162.231 889.957 V 869.957 M 233.124 889.957 V 869.957" stroke="rgb(0,255,0)" stroke-width="0.20" />
</g>
<g id="p-7" style="fill:none;stroke-linecap:round;stroke-linejoin:round;">
  <path d="M 160.499 865.257 H 162.231 H 170.578 C 170.678 865.257 170.578 865.157 170.578 865.257 V 868.157 C 170.578 868.212 170.622 868.257 170.678 868.257 H 176.678 C 176.733 868.257 176.778 868.212 176.778 868.157 V 865.257 C 176.778 865.157 176.678 865.257 176.778 865.257 H 182.578 C 182.678 865.257 182.578 865.157 182.578 865.257 V 868.157 C 182.578 868.212 182.622 868.257 182.678 868.257 H 188.678 C 188.733 868.257 188.778 868.212 188.778 868.157 V 865.257 C 188.778 865.157 188.678 865.257 188.778 865.257 H 194.578 C 194.678 865.257 194.578 865.157 194.578 865.257 V 868.157 C 194.578 868.212 194.622 868.257 194.678 868.257 H 200.678 C 200.733 868.257 200.778 868.212 200.778 868.157 V 865.257 C 200.778 865.157 200.678 865.257 200.778 865.257 H 206.578 C 206.678 865.257 206.578 865.157 206.578 865.257 V 868.157 C 206.578 868.212 206.622 868.257 206.678 868.257 H 212.678 C 212.733 868.257 212.778 868.212 212.778 868.157 V 865.257 C 212.778 865.157 212.678 865.257 212.778 865.257 H 218.578 C 218.678 865.257 218.578 865.157 218.578 865.257 V 868.157 C 218.578 868.212 218.622 868.257 218.678 868.257 H 224.678 C 224.733 868.257 224.778 868.212 224.778 868.157 V 865.257 C 224.778 865.157 224.678 865.257 224.778 865.257 H 233.124 H 234.856 C 234.911 865.257 234.956 865.212 234.956 865.157 V 845.157 C 234.956 845.102 234.911 845.057 234.856 845.057 H 160.499 C 160.444 845.057 160.399 845.102 160.399 845.157 V 865.157 C 160.399 865.212 160.444 865.257 160.499 865.257 Z" stroke="rgb(0,0,0)" stroke-width="0.20" />
  <path d="M 162.231 865.257 V 845.257 M 233.124 865.257 V 845.257" stroke="rgb(0,255,0)" stroke-width="0.20" />
</g>
<g id="p-8" style="fill:none;stroke-linecap:round;stroke-linejoin:round;">
  <path d="M 160.499 840.557 H 162.231 H 170.578 C 170.678 840.557 170.578 840.457 170.578 840.557 V 843.457 C 170.578 843.512 170.622 843.557 170.678 843.557 H 176.678 C 176.733 843.557 176.778 843.512 176.778 843.457 V 840.557 C 176.778 840.457 176.678 840.557 176.778 840.557 H 182.578 C 182.678 840.557 182.578 840.457 182.578 840.557 V 843.457 C 182.578 843.512 182.622 843.557 182.678 843.557 H 188.678 C 188.733 843.557 188.778 843.512 188.778 843.457 V 840.557 C 188.778 840.457 188.678 840.557 188.778 840.557 H 194.578 C 194.678 840.557 194.578 840.457 194.578 840.557 V 843.457 C 194.578 843.512 194.622 843.557 194.678 843.557 H 200.678 C 200.733 843.557 200.778 843.512 200.778 843.457 V 840.557 C 200.778 840.457 200.678 840.557 200.778 840.557 H 206.578 C 206.678 840.557 206.578 840.457 206.578 840.557 V 843.457 C 206.578 843.512 206.622 843.557 206.678 843.557 H 212.678 C 212.733 843.557 212.778 843.512 212.778 843.457 V 840.557 C 212.778 840.457 212.678 840.557 212.778 840.557 H 218.578 C 218.678 840.557 218.578 840.457 218.578 840.557 V 843.457 C 218.578 843.512 218.622 843.557 218.678 843.557 H 224.678 C 224.733 843.557 224.778 843.512 224.778 843.457 V 840.557 C 224.778 840.457 224.678 840.557 224.778 840.557 H 233.124 H 234.856 C 234.911 840.557 234.956 840.512 234.956 840.457 V 820.457 C 234.956 820.402 234.911 820.357 234.856 820.357 H 160.499 C 160.444 820.357 160.399 820.402 160.399 820.457 V 840.457 C 160.399 840.512 160.444 840.557 160.499 840.557 Z" stroke="rgb(0,0,0)" stroke-width="0.20" />
  <path d="M 162.231 840.557 V 820.557 M 233.124 840.557 V 820.557" stroke="rgb(0,255,0)" stroke-width="0.20" />
</g>
<g id="p-9" style="fill:none;stroke-linecap:round;stroke-linejoin:round;">
  <path d="M 160.499 815.857 H 162.231 H 170.578 C 170.678 815.857 170.578 815.757 170.578 815.857 V 818.757 C 170.578 818.812 170.622 818.857 170.678 818.857 H 176.678 C 176.733 818.857 176.778 818.812 176.778 818.757 V 815.857 C 176.778 815.757 176.678 815.857 176.778 815.857 H 182.578 C 182.678 815.857 182.578 815.757 182.578 815.857 V 818.757 C 182.578 818.812 182.622 818.857 182.678 818.857 H 188.678 C 188.733 818.857 188.778 818.812 188.778 818.757 V 815.857 C 188.778 815.757 188.678 815.857 188.778 815.857 H 194.578 C 194.678 815.857 194.578 815.757 194.578 815.857 V 818.757 C 194.578 818.812 194.622 818.857 194.678 818.857 H 200.678 C 200.733 818.857 200.778 818.812 200.778 818.757 V 815.857 C 200.778 815.757 200.678 815.857 200.778 815.857 H 206.578 C 206.678 815.857 206.578 815.757 206.578 815.857 V 818.757 C 206.578 818.812 206.622 818.857 206.678 818.857 H 212.678 C 212.733 818.857 212.778 818.812 212.778 818.757 V 815.857 C 212.778 815.757 212.678 815.857 212.778 815.857 H 218.578 C 218.678 815.857 218.578 815.757 218.578 815.857 V 818.757 C 218.578 818.812 218.622 818.857 218.678 818.857 H 224.678 C 224.733 818.857 224.778 818.812 224.778 818.757 V 815.857 C 224.778 815.757 224.678 815.857 224.778 815.857 H 233.124 H 234.856 C 234.911 815.857 234.956 815.812 234.956 815.757 V 795.757 C 234.956 795.702 234.911 795.657 234.856 795.657 H 160.499 C 160.444 795.657 160.399 795.702 160.399 795.757 V 815.757 C 160.399 815.812 160.444 815.857 160.499 815.857 Z" stroke="rgb(0,0,0)" stroke-width="0.20" />
  <path d="M 162.231 815.857 V 795.857 M 233.124 815.857 V 795.857" stroke="rgb(0,255,0)" stroke-width="0.20" />
</g>
<g id="p-10" style="fill:none;stroke-linecap:round;stroke-linejoin:round;">
  <path d="M 190.167 767.442 C 190.167 767.902 190.035 768.353 189.786 768.740 C 189.537 769.127 189.183 769.434 188.764 769.625 C 188.346 769.816 187.881 769.883 187.426 769.818 C 186.970 769.752 186.543 769.557 186.195 769.256 C 185.848 768.955 185.594 768.560 185.464 768.118 C 185.335 767.677 185.335 767.208 185.464 766.766 C 185.594 766.325 185.848 765.930 186.195 765.628 C 186.543 765.327 186.970 765.132 187.426 765.067 C 187.881 765.001 188.346 765.068 188.764 765.259 C 189.183 765.450 189.537 765.758 189.786 766.145 C 190.035 766.532 190.167 766.982 190.167 767.442 Z" stroke="rgb(0,0,255)" stroke-width="0.20" />
  <path d="M 177.497 785.331 H 198.038 C 198.073 785.331 198.106 785.312 198.124 785.281 L 208.395 767.492 C 208.412 767.461 208.412 767.423 208.395 767.392 L 198.124 749.603 C 198.106 749.572 198.073 749.553 198.038 749.553 H 177.497 C 177.461 749.553 177.428 749.572 177.410 749.603 L 167.140 767.392 C 167.122 767.423 167.122 767.461 167.140 767.492 L 177.410 785.281 C 177.428 785.312 177.461 785.331 177.497 785.331 Z" stroke="rgb(0,255,0)" stroke-width="0.20" />
  <path d="M 174.133 791.157 H 201.401 C 201.437 791.157 201.470 791.138 201.488 791.107 L 215.121 767.492 C 215.139 767.461 215.139 767.423 215.121 767.392 L 201.488 743.778 C 201.470 743.747 201.437 743.728 201.401 743.728 H 174.133 C 174.098 743.728 174.065 743.747 174.047 743.778 L 160.413 767.392 C 160.395 767.423 160.395 767.461 160.413 767.492 L 174.047 791.107 C 174.065 791.138 174.098 791.157 174.133 791.157 Z" stroke="rgb(0,0,0)" stroke-width="0.20" />
</g>
<g id="p-11" style="fill:none;stroke-linecap:round;stroke-linejoin:round;">
  <path d="M 160.499 742.228 H 242.784 C 242.820 742.228 242.853 742.209 242.871 742.178 L 284.013 670.917 C 284.031 670.886 284.031 670.848 284.013 670.817 L 242.871 599.557 C 242.853 599.526 242.820 599.507 242.784 599.507 H 160.499 C 160.482 599.507 160.465 599.511 160.449 599.520 C 160.434 599.529 160.422 599.541 160.413 599.557 C 160.404 599.572 160.399 599.589 160.399 599.607 C 160.399 599.624 160.404 599.641 160.413 599.657 L 167.913 612.647 C 167.931 612.678 167.964 612.697 167.999 612.697 H 235.226 C 235.284 612.697 235.197 612.647 235.226 612.697 L 268.811 670.867 C 268.840 670.917 268.840 670.817 268.811 670.867 L 235.226 729.037 C 235.197 729.087 235.284 729.037 235.226 729.037 H 167.999 C 167.964 729.037 167.931 729.056 167.913 729.087 L 160.413 742.078 C 160.404 742.093 160.399 742.110 160.399 742.128 C 160.399 742.145 160.404 742.163 160.413 742.178 C 160.422 742.193 160.434 742.206 160.449 742.214 C 160.465 742.223 160.482 742.228 160.499 742.228 Z" stroke="rgb(0,0,0)" stroke-width="0.20" />
</g>
<g id="p-12" style="fill:none;stroke-linecap:round;stroke-linejoin:round;">
  <path d="M 160.499 575.959 H 242.784 C 242.820 575.959 242.853 575.939 242.871 575.909 L 284.013 504.648 C 284.031 504.617 284.031 504.579 284.013 504.548 L 242.871 433.287 C 242.853 433.256 242.820 433.237 242.784 433.237 H 160.499 C 160.482 433.237 160.465 433.242 160.449 433.251 C 160.434 433.260 160.422 433.272 160.413 433.287 C 160.404 433.303 160.399 433.320 160.399 433.337 C 160.399 433.355 160.404 433.372 160.413 433.387 L 173.089 455.344 C 173.107 455.375 173.140 455.394 173.176 455.394 H 230.050 C 230.107 455.394 230.021 455.344 230.050 455.394 L 258.458 504.598 C 258.487 504.648 258.487 504.548 258.458 504.598 L 230.050 553.802 C 230.021 553.852 230.107 553.802 230.050 553.802 H 173.176 C 173.140 553.802 173.107 553.821 173.089 553.852 L 160.413 575.809 C 160.404 575.824 160.399 575.841 160.399 575.859 C 160.399 575.876 160.404 575.893 160.413 575.909 C 160.422 575.924 160.434 575.936 160.449 575.945 C 160.465 575.954 160.482 575.959 160.499 575.959 Z" stroke="rgb(0,0,0)" stroke-width="0.20" />
</g>
<g id="p-13" style="fill:none;stroke-linecap:round;stroke-linejoin:round;">
  <path d="M 326.769 575.959 H 417.661 C 417.678 575.959 417.695 575.954 417.709 575.946 C 417.724 575.938 417.737 575.926 417.746 575.912 C 417.755 575.897 417.760 575.881 417.761 575.864 C 417.762 575.847 417.758 575.830 417.751 575.815 L 373.400 484.809 C 373.376 484.760 373.316 484.739 373.266 484.763 C 372.939 484.923 372.579 485.006 372.215 485.006 C 371.850 485.006 371.491 484.923 371.163 484.763 C 371.114 484.739 371.054 484.760 371.030 484.809 L 326.679 575.815 C 326.671 575.830 326.668 575.847 326.669 575.864 C 326.670 575.881 326.675 575.897 326.684 575.912 C 326.693 575.926 326.705 575.938 326.720 575.946 C 326.735 575.954 326.752 575.959 326.769 575.959 Z" stroke="rgb(0,0,0)" stroke-width="0.20" />
  <path d="M 327.697 574.053 H 416.732" stroke="rgb(0,255,0)" stroke-width="0.20" />
  <path d="M 327.733 575.959 L 371.986 485.206 M 416.697 575.959 L 372.443 485.206" stroke="rgb(0,255,0)" stroke-width="0.20" />
</g>
<g id="p-14" style="fill:none;stroke-linecap:round;stroke-linejoin:round;">
  <path d="M 326.769 481.006 H 417.661 C 417.678 481.006 417.695 481.002 417.709 480.993 C 417.724 480.985 417.737 480.973 417.746 480.959 C 417.755 480.944 417.760 480.928 417.761 480.911 C 417.762 480.894 417.758 480.877 417.751 480.862 L 373.400 389.857 C 373.376 389.807 373.316 389.786 373.266 389.811 C 372.939 389.970 372.579 390.053 372.215 390.053 C 371.850 390.053 371.491 389.970 371.163 389.811 C 371.114 389.786 371.054 389.807 371.030 389.857 L 326.679 480.862 C 326.671 480.877 326.668 480.894 326.669 480.911 C 326.670 480.928 326.675 480.944 326.684 480.959 C 326.693 480.973 326.705 480.985 326.720 480.993 C 326.735 481.002 326.752 481.006 326.769 481.006 Z" stroke="rgb(0,0,0)" stroke-width="0.20" />
  <path d="M 327.697 479.100 H 416.732" stroke="rgb(0,255,0)" stroke-width="0.20" />
  <path d="M 327.733 481.006 L 371.986 390.253 M 416.697 481.006 L 372.443 390.253" stroke="rgb(0,255,0)" stroke-width="0.20" />
</g>
<g id="p-15" style="fill:none;stroke-linecap:round;stroke-linejoin:round;">
  <path d="M 326.769 386.053 H 417.661 C 417.678 386.053 417.695 386.049 417.709 386.041 C 417.724 386.032 417.737 386.021 417.746 386.006 C 417.755 385.992 417.760 385.975 417.761 385.958 C 417.762 385.942 417.758 385.925 417.751 385.909 L 373.400 294.904 C 373.376 294.854 373.316 294.834 373.266 294.858 C 372.939 295.018 372.579 295.101 372.215 295.101 C 371.850 295.101 371.491 295.018 371.163 294.858 C 371.114 294.834 371.054 294.854 371.030 294.904 L 326.679 385.909 C 326.671 385.925 326.668 385.942 326.669 385.958 C 326.670 385.975 326.675 385.992 326.684 386.006 C 326.693 386.021 326.705 386.032 326.720 386.041 C 326.735 386.049 326.752 386.053 326.769 386.053 Z" stroke="rgb(0,0,0)" stroke-width="0.20" />
  <path d="M 327.697 384.148 H 416.732" stroke="rgb(0,255,0)" stroke-width="0.20" />
  <path d="M 327.733 386.053 L 371.986 295.301 M 416.697 386.053 L 372.443 295.301" stroke="rgb(0,255,0)" stroke-width="0.20" />
</g>
<g id="p-16" style="fill:none;stroke-linecap:round;stroke-linejoin:round;">
  <path d="M 326.769 291.101 H 417.661 C 417.678 291.101 417.695 291.096 417.709 291.088 C 417.724 291.080 417.737 291.068 417.746 291.054 C 417.755 291.039 417.760 291.023 417.761 291.006 C 417.762 290.989 417.758 290.972 417.751 290.957 L 373.400 199.951 C 373.376 199.902 373.316 199.881 373.266 199.905 C 372.939 200.065 372.579 200.148 372.215 200.148 C 371.850 200.148 371.491 200.065 371.163 199.905 C 371.114 199.881 371.054 199.902 371.030 199.951 L 326.679 290.957 C 326.671 290.972 326.668 290.989 326.669 291.006 C 326.670 291.023 326.675 291.039 326.684 291.054 C 326.693 291.068 326.705 291.080 326.720 291.088 C 326.735 291.096 326.752 291.101 326.769 291.101 Z" stroke="rgb(0,0,0)" stroke-width="0.20" />
  <path d="M 327.697 289.195 H 416.732" stroke="rgb(0,255,0)" stroke-width="0.20" />
  <path d="M 327.733 291.101 L 371.986 200.348 M 416.697 291.101 L 372.443 200.348" stroke="rgb(0,255,0)" stroke-width="0.20" />
</g>
<g id="p-17" style="fill:none;stroke-linecap:round;stroke-linejoin:round;">
  <path d="M 326.769 196.148 H 417.661 C 417.678 196.148 417.695 196.144 417.709 196.135 C 417.724 196.127 417.737 196.115 417.746 196.101 C 417.755 196.087 417.760 196.070 417.761 196.053 C 417.762 196.036 417.758 196.019 417.751 196.004 L 373.400 104.999 C 373.376 104.949 373.316 104.928 373.266 104.953 C 372.939 105.112 372.579 105.195 372.215 105.195 C 371.850 105.195 371.491 105.112 371.163 104.953 C 371.114 104.928 371.054 104.949 371.030 104.999 L 326.679 196.004 C 326.671 196.019 326.668 196.036 326.669 196.053 C 326.670 196.070 326.675 196.087 326.684 196.101 C 326.693 196.115 326.705 196.127 326.720 196.135 C 326.735 196.144 326.752 196.148 326.769 196.148 Z" stroke="rgb(0,0,0)" stroke-width="0.20" />
  <path d="M 327.697 194.242 H 416.732" stroke="rgb(0,255,0)" stroke-width="0.20" />
  <path d="M 327.733 196.148 L 371.986 105.395 M 416.697 196.148 L 372.443 105.395" stroke="rgb(0,255,0)" stroke-width="0.20" />
</g>
<g id="p-18" style="fill:none;stroke-linecap:round;stroke-linejoin:round;">
  <path d="M 326.769 101.195 H 417.661 C 417.678 101.195 417.695 101.191 417.709 101.183 C 417.724 101.174 417.737 101.163 417.746 101.148 C 417.755 101.134 417.760 101.117 417.761 101.100 C 417.762 101.084 417.758 101.067 417.751 101.051 L 373.400 10.046 C 373.376 9.996 373.316 9.976 373.266 10.000 C 372.939 10.160 372.579 10.243 372.215 10.243 C 371.850 10.243 371.491 10.160 371.163 10.000 C 371.114 9.976 371.054 9.996 371.030 10.046 L 326.679 101.051 C 326.671 101.067 326.668 101.084 326.669 101.100 C 326.670 101.117 326.675 101.134 326.684 101.148 C 326.693 101.163 326.705 101.174 326.720 101.183 C 326.735 101.191 326.752 101.195 326.769 101.195 Z" stroke="rgb(0,0,0)" stroke-width="0.20" />
  <path d="M 327.697 99.290 H 416.732" stroke="rgb(0,255,0)" stroke-width="0.20" />
  <path d="M 327.733 101.195 L 371.986 10.443 M 416.697 101.195 L 372.443 10.443" stroke="rgb(0,255,0)" stroke-width="0.20" />
</g>
</svg>